<mxfile host="app.diagrams.net" modified="2024-05-13T15:31:39.136Z" agent="Mozilla/5.0 (X11; Linux x86_64; rv:125.0) Gecko/20100101 Firefox/125.0" version="24.4.0" etag="wOAbnpVRCKRv3edudtjj" type="github">
  <diagram name="Page-1" id="eqYuc8Sgv0YEJW-9Jb40">
    <mxGraphModel>
      <root>
        <mxCell id="0" />
        <mxCell id="1" parent="0" />
      </root>
    </mxGraphModel>
  </diagram>
</mxfile>
